<svg xmlns="http://www.w3.org/2000/svg" xmlns:xlink="http://www.w3.org/1999/xlink" width="282" zoomAndPan="magnify" viewBox="0 0 211.5 37.5" height="50" preserveAspectRatio="xMidYMid meet" version="1.0"><defs><g/><clipPath id="910fbd6273"><path d="M 15.355469 0 L 36 0 L 36 37.007812 L 15.355469 37.007812 Z M 15.355469 0 " clip-rule="nonzero"/></clipPath><clipPath id="733b770aeb"><path d="M 35 0 L 56 0 L 56 37.007812 L 35 37.007812 Z M 35 0 " clip-rule="nonzero"/></clipPath></defs><g clip-path="url(#910fbd6273)"><path fill="#f59e0b" d="M 30.429688 9.617188 C 30.429688 9.882812 30.210938 10.101562 29.941406 10.101562 C 29.675781 10.101562 29.457031 9.882812 29.457031 9.617188 C 29.457031 9.347656 29.675781 9.128906 29.941406 9.128906 C 30.210938 9.128906 30.429688 9.347656 30.429688 9.617188 Z M 23.097656 10.664062 C 23.097656 10.929688 22.878906 11.148438 22.613281 11.148438 C 22.34375 11.148438 22.125 10.929688 22.125 10.664062 C 22.125 10.394531 22.34375 10.175781 22.613281 10.175781 C 22.878906 10.175781 23.097656 10.394531 23.097656 10.664062 Z M 27.632812 15.589844 C 27.632812 15.320312 27.851562 15.105469 28.117188 15.105469 C 28.386719 15.105469 28.605469 15.320312 28.605469 15.589844 C 28.605469 15.859375 28.386719 16.078125 28.117188 16.078125 C 27.851562 16.078125 27.632812 15.859375 27.632812 15.589844 Z M 22.480469 23.660156 C 22.75 23.660156 22.964844 23.878906 22.964844 24.144531 C 22.964844 24.414062 22.75 24.632812 22.480469 24.632812 C 22.210938 24.632812 21.992188 24.414062 21.992188 24.144531 C 21.992188 23.878906 22.210938 23.660156 22.480469 23.660156 Z M 30.773438 13.175781 C 30.773438 12.910156 30.992188 12.691406 31.261719 12.691406 C 31.527344 12.691406 31.746094 12.910156 31.746094 13.175781 C 31.746094 13.445312 31.527344 13.664062 31.261719 13.664062 C 30.992188 13.664062 30.773438 13.445312 30.773438 13.175781 Z M 30.394531 1.199219 L 34.394531 3.234375 L 34.394531 33.664062 L 32.675781 35.386719 L 32.675781 28.359375 C 33.195312 28.160156 33.5625 27.660156 33.5625 27.074219 C 33.5625 26.308594 32.941406 25.6875 32.179688 25.6875 C 31.417969 25.6875 30.796875 26.308594 30.796875 27.074219 C 30.796875 27.695312 31.210938 28.214844 31.777344 28.390625 L 31.777344 35.761719 L 29.328125 34.597656 L 29.328125 31.695312 C 29.863281 31.503906 30.253906 31 30.253906 30.394531 C 30.253906 29.632812 29.632812 29.011719 28.871094 29.011719 C 28.105469 29.011719 27.484375 29.632812 27.484375 30.394531 C 27.484375 31.003906 27.882812 31.515625 28.429688 31.703125 L 28.429688 34.171875 L 26.578125 33.292969 L 26.578125 25.53125 C 26.578125 24.363281 27.527344 23.417969 28.691406 23.417969 C 30.351562 23.417969 31.703125 22.066406 31.703125 20.40625 L 31.703125 14.484375 C 32.25 14.296875 32.644531 13.785156 32.644531 13.175781 C 32.644531 12.414062 32.023438 11.792969 31.261719 11.792969 C 30.496094 11.792969 29.875 12.414062 29.875 13.175781 C 29.875 13.78125 30.265625 14.289062 30.804688 14.480469 L 30.804688 20.40625 C 30.804688 21.570312 29.855469 22.519531 28.691406 22.519531 C 27.03125 22.519531 25.679688 23.871094 25.679688 25.53125 L 25.679688 32.867188 L 19.519531 29.945312 L 16.761719 18.855469 L 17.660156 18.855469 C 19.941406 18.855469 21.800781 20.617188 21.996094 22.851562 C 21.472656 23.050781 21.097656 23.554688 21.097656 24.144531 C 21.097656 24.910156 21.71875 25.53125 22.480469 25.53125 C 23.242188 25.53125 23.863281 24.910156 23.863281 24.144531 C 23.863281 23.535156 23.460938 23.019531 22.910156 22.835938 C 22.710938 20.113281 20.433594 17.957031 17.660156 17.957031 L 16.539062 17.957031 L 16.316406 17.0625 L 16.734375 16.105469 L 26.835938 16.105469 C 27.039062 16.613281 27.539062 16.972656 28.117188 16.972656 C 28.882812 16.972656 29.503906 16.355469 29.503906 15.589844 C 29.503906 14.828125 28.882812 14.207031 28.117188 14.207031 C 27.488281 14.207031 26.960938 14.632812 26.796875 15.207031 L 17.128906 15.207031 L 22.164062 3.691406 L 26.09375 2.320312 L 26.09375 7.371094 C 26.09375 8.71875 25.148438 9.84375 23.890625 10.132812 C 23.683594 9.632812 23.1875 9.277344 22.613281 9.277344 C 21.847656 9.277344 21.226562 9.898438 21.226562 10.664062 C 21.226562 11.425781 21.847656 12.046875 22.613281 12.046875 C 23.242188 12.046875 23.769531 11.621094 23.9375 11.042969 C 25.671875 10.71875 26.992188 9.199219 26.992188 7.371094 L 26.992188 2.007812 L 29.496094 1.132812 L 29.496094 8.3125 C 28.953125 8.5 28.558594 9.007812 28.558594 9.617188 C 28.558594 10.378906 29.179688 11 29.941406 11 C 30.703125 11 31.324219 10.378906 31.324219 9.617188 C 31.324219 9.011719 30.933594 8.5 30.394531 8.3125 Z M 32.179688 27.558594 C 31.910156 27.558594 31.695312 27.339844 31.695312 27.074219 C 31.695312 26.804688 31.910156 26.585938 32.179688 26.585938 C 32.449219 26.585938 32.664062 26.804688 32.664062 27.074219 C 32.664062 27.339844 32.449219 27.558594 32.179688 27.558594 Z M 28.871094 30.882812 C 28.601562 30.882812 28.382812 30.664062 28.382812 30.394531 C 28.382812 30.128906 28.601562 29.910156 28.871094 29.910156 C 29.136719 29.910156 29.355469 30.128906 29.355469 30.394531 C 29.355469 30.664062 29.136719 30.882812 28.871094 30.882812 Z M 21.496094 2.972656 L 15.371094 16.980469 L 18.753906 30.574219 L 32.320312 37.011719 L 35.292969 34.035156 L 35.292969 2.683594 L 30.015625 0.00390625 L 21.496094 2.972656 " fill-opacity="1" fill-rule="nonzero"/></g><g clip-path="url(#733b770aeb)"><path fill="#f59e0b" d="M 43.457031 15.589844 C 43.457031 15.859375 43.238281 16.078125 42.96875 16.078125 C 42.699219 16.078125 42.484375 15.859375 42.484375 15.589844 C 42.484375 15.320312 42.699219 15.105469 42.96875 15.105469 C 43.238281 15.105469 43.457031 15.320312 43.457031 15.589844 Z M 47.988281 10.664062 C 47.988281 10.394531 48.207031 10.175781 48.476562 10.175781 C 48.742188 10.175781 48.960938 10.394531 48.960938 10.664062 C 48.960938 10.929688 48.742188 11.148438 48.476562 11.148438 C 48.207031 11.148438 47.988281 10.929688 47.988281 10.664062 Z M 39.828125 13.664062 C 39.558594 13.664062 39.339844 13.445312 39.339844 13.175781 C 39.339844 12.910156 39.558594 12.691406 39.828125 12.691406 C 40.09375 12.691406 40.3125 12.910156 40.3125 13.175781 C 40.3125 13.445312 40.09375 13.664062 39.828125 13.664062 Z M 49.09375 24.144531 C 49.09375 24.414062 48.875 24.632812 48.605469 24.632812 C 48.339844 24.632812 48.121094 24.414062 48.121094 24.144531 C 48.121094 23.878906 48.339844 23.660156 48.605469 23.660156 C 48.875 23.660156 49.09375 23.878906 49.09375 24.144531 Z M 48.175781 22.835938 C 47.625 23.019531 47.222656 23.535156 47.222656 24.144531 C 47.222656 24.910156 47.84375 25.53125 48.605469 25.53125 C 49.371094 25.53125 49.992188 24.910156 49.992188 24.144531 C 49.992188 23.554688 49.613281 23.050781 49.089844 22.851562 C 49.285156 20.617188 51.144531 18.855469 53.429688 18.855469 L 54.324219 18.855469 L 51.566406 29.945312 L 45.40625 32.867188 L 45.40625 25.53125 C 45.40625 23.871094 44.054688 22.519531 42.394531 22.519531 C 41.230469 22.519531 40.28125 21.570312 40.28125 20.40625 L 40.28125 14.480469 C 40.820312 14.289062 41.210938 13.78125 41.210938 13.175781 C 41.210938 12.414062 40.589844 11.792969 39.828125 11.792969 C 39.0625 11.792969 38.441406 12.414062 38.441406 13.175781 C 38.441406 13.785156 38.839844 14.296875 39.382812 14.484375 L 39.382812 20.40625 C 39.382812 22.066406 40.734375 23.417969 42.394531 23.417969 C 43.558594 23.417969 44.507812 24.363281 44.507812 25.53125 L 44.507812 33.292969 L 42.65625 34.171875 L 42.65625 31.703125 C 43.203125 31.515625 43.601562 31.003906 43.601562 30.394531 C 43.601562 29.632812 42.980469 29.011719 42.21875 29.011719 C 41.453125 29.011719 40.832031 29.632812 40.832031 30.394531 C 40.832031 31 41.222656 31.503906 41.757812 31.695312 L 41.757812 34.597656 L 39.308594 35.761719 L 39.308594 28.390625 C 39.875 28.214844 40.292969 27.695312 40.292969 27.074219 C 40.292969 26.308594 39.671875 25.6875 38.90625 25.6875 C 38.144531 25.6875 37.523438 26.308594 37.523438 27.074219 C 37.523438 27.660156 37.894531 28.160156 38.410156 28.359375 L 38.410156 35.386719 L 36.691406 33.664062 L 36.691406 3.234375 L 40.695312 1.199219 L 40.695312 8.3125 C 40.152344 8.5 39.761719 9.011719 39.761719 9.617188 C 39.761719 10.378906 40.382812 11 41.144531 11 C 41.910156 11 42.527344 10.378906 42.527344 9.617188 C 42.527344 9.007812 42.132812 8.5 41.589844 8.3125 L 41.589844 1.132812 L 44.097656 2.007812 L 44.097656 7.371094 C 44.097656 9.199219 45.414062 10.71875 47.152344 11.042969 C 47.316406 11.621094 47.84375 12.046875 48.476562 12.046875 C 49.238281 12.046875 49.859375 11.425781 49.859375 10.664062 C 49.859375 9.898438 49.238281 9.277344 48.476562 9.277344 C 47.898438 9.277344 47.40625 9.632812 47.195312 10.132812 C 45.9375 9.84375 44.992188 8.71875 44.992188 7.371094 L 44.992188 2.320312 L 48.925781 3.691406 L 53.960938 15.207031 L 44.292969 15.207031 C 44.125 14.632812 43.597656 14.207031 42.96875 14.207031 C 42.207031 14.207031 41.585938 14.828125 41.585938 15.589844 C 41.585938 16.355469 42.207031 16.972656 42.96875 16.972656 C 43.550781 16.972656 44.046875 16.613281 44.25 16.105469 L 54.351562 16.105469 L 54.769531 17.0625 L 54.546875 17.957031 L 53.429688 17.957031 C 50.652344 17.957031 48.375 20.113281 48.175781 22.835938 Z M 42.21875 30.882812 C 41.949219 30.882812 41.730469 30.664062 41.730469 30.394531 C 41.730469 30.128906 41.949219 29.910156 42.21875 29.910156 C 42.484375 29.910156 42.703125 30.128906 42.703125 30.394531 C 42.703125 30.664062 42.484375 30.882812 42.21875 30.882812 Z M 38.90625 27.558594 C 38.640625 27.558594 38.421875 27.339844 38.421875 27.074219 C 38.421875 26.804688 38.640625 26.585938 38.90625 26.585938 C 39.175781 26.585938 39.394531 26.804688 39.394531 27.074219 C 39.394531 27.339844 39.175781 27.558594 38.90625 27.558594 Z M 41.144531 9.128906 C 41.414062 9.128906 41.632812 9.347656 41.632812 9.617188 C 41.632812 9.882812 41.414062 10.101562 41.144531 10.101562 C 40.878906 10.101562 40.660156 9.882812 40.660156 9.617188 C 40.660156 9.347656 40.878906 9.128906 41.144531 9.128906 Z M 49.589844 2.972656 L 41.074219 0.00390625 L 35.792969 2.683594 L 35.792969 34.035156 L 38.765625 37.011719 L 52.335938 30.574219 L 55.714844 16.980469 L 49.589844 2.972656 " fill-opacity="1" fill-rule="nonzero"/></g><g fill="#f59e0b" fill-opacity="1"><g transform="translate(64.283908, 15.03667)"><g><path d="M 4.25 0.203125 C 3.0625 0.203125 2.128906 -0.078125 1.453125 -0.640625 C 0.785156 -1.203125 0.453125 -1.976562 0.453125 -2.96875 L 3.015625 -2.96875 C 3.015625 -2.625 3.117188 -2.351562 3.328125 -2.15625 C 3.546875 -1.957031 3.84375 -1.859375 4.21875 -1.859375 C 4.53125 -1.859375 4.78125 -1.921875 4.96875 -2.046875 C 5.15625 -2.171875 5.25 -2.347656 5.25 -2.578125 C 5.25 -3.078125 4.695312 -3.4375 3.59375 -3.65625 C 1.539062 -4.050781 0.515625 -5.015625 0.515625 -6.546875 C 0.515625 -7.410156 0.828125 -8.09375 1.453125 -8.59375 C 2.078125 -9.09375 2.929688 -9.34375 4.015625 -9.34375 C 4.765625 -9.34375 5.414062 -9.21875 5.96875 -8.96875 C 6.519531 -8.71875 6.945312 -8.359375 7.25 -7.890625 C 7.550781 -7.421875 7.703125 -6.875 7.703125 -6.25 L 5.21875 -6.25 C 5.21875 -6.601562 5.113281 -6.867188 4.90625 -7.046875 C 4.707031 -7.234375 4.425781 -7.328125 4.0625 -7.328125 C 3.757812 -7.328125 3.515625 -7.257812 3.328125 -7.125 C 3.148438 -7 3.0625 -6.828125 3.0625 -6.609375 C 3.0625 -6.367188 3.179688 -6.171875 3.421875 -6.015625 C 3.671875 -5.859375 4.085938 -5.710938 4.671875 -5.578125 C 5.785156 -5.335938 6.597656 -4.984375 7.109375 -4.515625 C 7.617188 -4.046875 7.875 -3.4375 7.875 -2.6875 C 7.875 -1.78125 7.554688 -1.070312 6.921875 -0.5625 C 6.285156 -0.0507812 5.394531 0.203125 4.25 0.203125 Z M 4.25 0.203125 "/></g></g></g><g fill="#f59e0b" fill-opacity="1"><g transform="translate(74.566008, 15.03667)"><g><path d="M 4.3125 0.203125 C 3.550781 0.203125 2.875 0.046875 2.28125 -0.265625 C 1.695312 -0.578125 1.238281 -1.003906 0.90625 -1.546875 C 0.570312 -2.097656 0.40625 -2.738281 0.40625 -3.46875 C 0.40625 -4.1875 0.570312 -4.816406 0.90625 -5.359375 C 1.238281 -5.910156 1.695312 -6.335938 2.28125 -6.640625 C 2.875 -6.953125 3.554688 -7.109375 4.328125 -7.109375 C 5.160156 -7.109375 5.875 -6.929688 6.46875 -6.578125 C 7.0625 -6.234375 7.515625 -5.738281 7.828125 -5.09375 C 8.140625 -4.445312 8.269531 -3.695312 8.21875 -2.84375 L 2.890625 -2.84375 C 2.984375 -2.46875 3.164062 -2.179688 3.4375 -1.984375 C 3.707031 -1.796875 4.019531 -1.703125 4.375 -1.703125 C 4.644531 -1.703125 4.890625 -1.75 5.109375 -1.84375 C 5.335938 -1.9375 5.519531 -2.066406 5.65625 -2.234375 L 8.09375 -2.234375 C 7.789062 -1.460938 7.304688 -0.863281 6.640625 -0.4375 C 5.984375 -0.0078125 5.207031 0.203125 4.3125 0.203125 Z M 2.90625 -4.203125 L 5.828125 -4.203125 C 5.722656 -4.523438 5.546875 -4.773438 5.296875 -4.953125 C 5.054688 -5.140625 4.742188 -5.234375 4.359375 -5.234375 C 4.003906 -5.234375 3.695312 -5.140625 3.4375 -4.953125 C 3.1875 -4.773438 3.007812 -4.523438 2.90625 -4.203125 Z M 2.90625 -4.203125 "/></g></g></g><g fill="#f59e0b" fill-opacity="1"><g transform="translate(85.109745, 15.03667)"><g><path d="M 0.875 0 L 0.875 -6.921875 L 2.6875 -6.921875 L 3 -6.0625 C 3.21875 -6.363281 3.488281 -6.582031 3.8125 -6.71875 C 4.132812 -6.851562 4.535156 -6.921875 5.015625 -6.921875 L 5.8125 -6.921875 L 5.8125 -4.671875 L 5.015625 -4.671875 C 4.460938 -4.671875 4.050781 -4.53125 3.78125 -4.25 C 3.519531 -3.976562 3.390625 -3.546875 3.390625 -2.953125 L 3.390625 0 Z M 0.875 0 "/></g></g></g><g fill="#f59e0b" fill-opacity="1"><g transform="translate(93.259564, 15.03667)"><g><path d="M 4.421875 2.984375 C 3.347656 2.984375 2.484375 2.742188 1.828125 2.265625 C 1.171875 1.796875 0.804688 1.148438 0.734375 0.328125 L 3.15625 0.328125 C 3.207031 0.566406 3.335938 0.75 3.546875 0.875 C 3.765625 1 4.039062 1.0625 4.375 1.0625 C 5.226562 1.0625 5.65625 0.609375 5.65625 -0.296875 L 5.65625 -0.8125 C 5.101562 -0.445312 4.445312 -0.265625 3.6875 -0.265625 C 3.039062 -0.265625 2.472656 -0.40625 1.984375 -0.6875 C 1.492188 -0.976562 1.109375 -1.378906 0.828125 -1.890625 C 0.546875 -2.410156 0.40625 -3.007812 0.40625 -3.6875 C 0.40625 -4.363281 0.546875 -4.957031 0.828125 -5.46875 C 1.109375 -5.988281 1.492188 -6.390625 1.984375 -6.671875 C 2.472656 -6.960938 3.039062 -7.109375 3.6875 -7.109375 C 4.695312 -7.109375 5.507812 -6.804688 6.125 -6.203125 L 6.375 -6.921875 L 8.1875 -6.921875 L 8.1875 -0.359375 C 8.1875 0.710938 7.847656 1.535156 7.171875 2.109375 C 6.492188 2.691406 5.578125 2.984375 4.421875 2.984375 Z M 2.859375 -3.6875 C 2.859375 -3.257812 2.992188 -2.90625 3.265625 -2.625 C 3.535156 -2.351562 3.882812 -2.21875 4.3125 -2.21875 C 4.738281 -2.21875 5.082031 -2.351562 5.34375 -2.625 C 5.613281 -2.90625 5.75 -3.257812 5.75 -3.6875 C 5.75 -4.113281 5.613281 -4.460938 5.34375 -4.734375 C 5.082031 -5.003906 4.738281 -5.140625 4.3125 -5.140625 C 3.882812 -5.140625 3.535156 -5.003906 3.265625 -4.734375 C 2.992188 -4.460938 2.859375 -4.113281 2.859375 -3.6875 Z M 2.859375 -3.6875 "/></g></g></g><g fill="#f59e0b" fill-opacity="1"><g transform="translate(104.261151, 15.03667)"><g><path d="M 0.875 0 L 0.875 -6.921875 L 3.390625 -6.921875 L 3.390625 0 Z M 0.625 -9.28125 C 0.625 -9.71875 0.765625 -10.066406 1.046875 -10.328125 C 1.335938 -10.597656 1.695312 -10.734375 2.125 -10.734375 C 2.5625 -10.734375 2.921875 -10.597656 3.203125 -10.328125 C 3.492188 -10.066406 3.640625 -9.71875 3.640625 -9.28125 C 3.640625 -8.851562 3.492188 -8.503906 3.203125 -8.234375 C 2.921875 -7.960938 2.5625 -7.828125 2.125 -7.828125 C 1.695312 -7.828125 1.335938 -7.960938 1.046875 -8.234375 C 0.765625 -8.503906 0.625 -8.851562 0.625 -9.28125 Z M 0.625 -9.28125 "/></g></g></g><g fill="#f59e0b" fill-opacity="1"><g transform="translate(110.448742, 15.03667)"><g><path d="M 4.4375 0.203125 C 3.632812 0.203125 2.925781 0.0507812 2.3125 -0.25 C 1.707031 -0.5625 1.238281 -0.992188 0.90625 -1.546875 C 0.570312 -2.097656 0.40625 -2.738281 0.40625 -3.46875 C 0.40625 -4.1875 0.570312 -4.820312 0.90625 -5.375 C 1.238281 -5.925781 1.707031 -6.351562 2.3125 -6.65625 C 2.925781 -6.957031 3.632812 -7.109375 4.4375 -7.109375 C 5.238281 -7.109375 5.9375 -6.957031 6.53125 -6.65625 C 7.132812 -6.351562 7.601562 -5.925781 7.9375 -5.375 C 8.28125 -4.820312 8.453125 -4.1875 8.453125 -3.46875 C 8.453125 -2.738281 8.28125 -2.097656 7.9375 -1.546875 C 7.601562 -0.992188 7.132812 -0.5625 6.53125 -0.25 C 5.9375 0.0507812 5.238281 0.203125 4.4375 0.203125 Z M 2.859375 -3.46875 C 2.859375 -3 3.003906 -2.617188 3.296875 -2.328125 C 3.597656 -2.035156 3.976562 -1.890625 4.4375 -1.890625 C 4.894531 -1.890625 5.265625 -2.035156 5.546875 -2.328125 C 5.835938 -2.617188 5.984375 -3 5.984375 -3.46875 C 5.984375 -3.925781 5.835938 -4.300781 5.546875 -4.59375 C 5.265625 -4.882812 4.894531 -5.03125 4.4375 -5.03125 C 3.976562 -5.03125 3.597656 -4.882812 3.296875 -4.59375 C 3.003906 -4.300781 2.859375 -3.925781 2.859375 -3.46875 Z M 2.859375 -3.46875 "/></g></g></g><g fill="#f59e0b" fill-opacity="1"><g transform="translate(121.227945, 15.03667)"><g/></g></g><g fill="#f59e0b" fill-opacity="1"><g transform="translate(126.172797, 15.03667)"><g><path d="M 3.15625 0 L 3.15625 -6.703125 L 0.359375 -6.703125 L 0.359375 -9.15625 L 8.5625 -9.15625 L 8.5625 -6.703125 L 5.78125 -6.703125 L 5.78125 0 Z M 3.15625 0 "/></g></g></g><g fill="#f59e0b" fill-opacity="1"><g transform="translate(137.030486, 15.03667)"><g><path d="M 4.4375 0.203125 C 3.632812 0.203125 2.925781 0.0507812 2.3125 -0.25 C 1.707031 -0.5625 1.238281 -0.992188 0.90625 -1.546875 C 0.570312 -2.097656 0.40625 -2.738281 0.40625 -3.46875 C 0.40625 -4.1875 0.570312 -4.820312 0.90625 -5.375 C 1.238281 -5.925781 1.707031 -6.351562 2.3125 -6.65625 C 2.925781 -6.957031 3.632812 -7.109375 4.4375 -7.109375 C 5.238281 -7.109375 5.9375 -6.957031 6.53125 -6.65625 C 7.132812 -6.351562 7.601562 -5.925781 7.9375 -5.375 C 8.28125 -4.820312 8.453125 -4.1875 8.453125 -3.46875 C 8.453125 -2.738281 8.28125 -2.097656 7.9375 -1.546875 C 7.601562 -0.992188 7.132812 -0.5625 6.53125 -0.25 C 5.9375 0.0507812 5.238281 0.203125 4.4375 0.203125 Z M 2.859375 -3.46875 C 2.859375 -3 3.003906 -2.617188 3.296875 -2.328125 C 3.597656 -2.035156 3.976562 -1.890625 4.4375 -1.890625 C 4.894531 -1.890625 5.265625 -2.035156 5.546875 -2.328125 C 5.835938 -2.617188 5.984375 -3 5.984375 -3.46875 C 5.984375 -3.925781 5.835938 -4.300781 5.546875 -4.59375 C 5.265625 -4.882812 4.894531 -5.03125 4.4375 -5.03125 C 3.976562 -5.03125 3.597656 -4.882812 3.296875 -4.59375 C 3.003906 -4.300781 2.859375 -3.925781 2.859375 -3.46875 Z M 2.859375 -3.46875 "/></g></g></g><g fill="#f59e0b" fill-opacity="1"><g transform="translate(147.809688, 15.03667)"><g><path d="M 0.875 0 L 0.875 -9.671875 L 3.390625 -9.671875 L 3.390625 0 Z M 0.875 0 "/></g></g></g><g fill="#f59e0b" fill-opacity="1"><g transform="translate(153.997285, 15.03667)"><g><path d="M 4.3125 0.203125 C 3.550781 0.203125 2.875 0.046875 2.28125 -0.265625 C 1.695312 -0.578125 1.238281 -1.003906 0.90625 -1.546875 C 0.570312 -2.097656 0.40625 -2.738281 0.40625 -3.46875 C 0.40625 -4.1875 0.570312 -4.816406 0.90625 -5.359375 C 1.238281 -5.910156 1.695312 -6.335938 2.28125 -6.640625 C 2.875 -6.953125 3.554688 -7.109375 4.328125 -7.109375 C 5.160156 -7.109375 5.875 -6.929688 6.46875 -6.578125 C 7.0625 -6.234375 7.515625 -5.738281 7.828125 -5.09375 C 8.140625 -4.445312 8.269531 -3.695312 8.21875 -2.84375 L 2.890625 -2.84375 C 2.984375 -2.46875 3.164062 -2.179688 3.4375 -1.984375 C 3.707031 -1.796875 4.019531 -1.703125 4.375 -1.703125 C 4.644531 -1.703125 4.890625 -1.75 5.109375 -1.84375 C 5.335938 -1.9375 5.519531 -2.066406 5.65625 -2.234375 L 8.09375 -2.234375 C 7.789062 -1.460938 7.304688 -0.863281 6.640625 -0.4375 C 5.984375 -0.0078125 5.207031 0.203125 4.3125 0.203125 Z M 2.90625 -4.203125 L 5.828125 -4.203125 C 5.722656 -4.523438 5.546875 -4.773438 5.296875 -4.953125 C 5.054688 -5.140625 4.742188 -5.234375 4.359375 -5.234375 C 4.003906 -5.234375 3.695312 -5.140625 3.4375 -4.953125 C 3.1875 -4.773438 3.007812 -4.523438 2.90625 -4.203125 Z M 2.90625 -4.203125 "/></g></g></g><g fill="#f59e0b" fill-opacity="1"><g transform="translate(164.541025, 15.03667)"><g><path d="M 3.9375 0.203125 C 3.25 0.203125 2.640625 0.046875 2.109375 -0.265625 C 1.578125 -0.578125 1.160156 -1.003906 0.859375 -1.546875 C 0.554688 -2.097656 0.40625 -2.738281 0.40625 -3.46875 C 0.40625 -4.175781 0.554688 -4.804688 0.859375 -5.359375 C 1.160156 -5.910156 1.578125 -6.335938 2.109375 -6.640625 C 2.640625 -6.953125 3.25 -7.109375 3.9375 -7.109375 C 4.675781 -7.109375 5.328125 -6.925781 5.890625 -6.5625 L 5.890625 -9.671875 L 8.40625 -9.671875 L 8.40625 0 L 6.609375 0 L 6.359375 -0.6875 C 6.046875 -0.414062 5.6875 -0.195312 5.28125 -0.03125 C 4.875 0.125 4.425781 0.203125 3.9375 0.203125 Z M 2.859375 -3.46875 C 2.859375 -3 3.003906 -2.617188 3.296875 -2.328125 C 3.585938 -2.035156 3.96875 -1.890625 4.4375 -1.890625 C 4.894531 -1.890625 5.265625 -2.035156 5.546875 -2.328125 C 5.835938 -2.617188 5.984375 -3 5.984375 -3.46875 C 5.984375 -3.925781 5.835938 -4.300781 5.546875 -4.59375 C 5.265625 -4.882812 4.894531 -5.03125 4.4375 -5.03125 C 3.96875 -5.03125 3.585938 -4.882812 3.296875 -4.59375 C 3.003906 -4.300781 2.859375 -3.925781 2.859375 -3.46875 Z M 2.859375 -3.46875 "/></g></g></g><g fill="#f59e0b" fill-opacity="1"><g transform="translate(175.751915, 15.03667)"><g><path d="M 4.4375 0.203125 C 3.632812 0.203125 2.925781 0.0507812 2.3125 -0.25 C 1.707031 -0.5625 1.238281 -0.992188 0.90625 -1.546875 C 0.570312 -2.097656 0.40625 -2.738281 0.40625 -3.46875 C 0.40625 -4.1875 0.570312 -4.820312 0.90625 -5.375 C 1.238281 -5.925781 1.707031 -6.351562 2.3125 -6.65625 C 2.925781 -6.957031 3.632812 -7.109375 4.4375 -7.109375 C 5.238281 -7.109375 5.9375 -6.957031 6.53125 -6.65625 C 7.132812 -6.351562 7.601562 -5.925781 7.9375 -5.375 C 8.28125 -4.820312 8.453125 -4.1875 8.453125 -3.46875 C 8.453125 -2.738281 8.28125 -2.097656 7.9375 -1.546875 C 7.601562 -0.992188 7.132812 -0.5625 6.53125 -0.25 C 5.9375 0.0507812 5.238281 0.203125 4.4375 0.203125 Z M 2.859375 -3.46875 C 2.859375 -3 3.003906 -2.617188 3.296875 -2.328125 C 3.597656 -2.035156 3.976562 -1.890625 4.4375 -1.890625 C 4.894531 -1.890625 5.265625 -2.035156 5.546875 -2.328125 C 5.835938 -2.617188 5.984375 -3 5.984375 -3.46875 C 5.984375 -3.925781 5.835938 -4.300781 5.546875 -4.59375 C 5.265625 -4.882812 4.894531 -5.03125 4.4375 -5.03125 C 3.976562 -5.03125 3.597656 -4.882812 3.296875 -4.59375 C 3.003906 -4.300781 2.859375 -3.925781 2.859375 -3.46875 Z M 2.859375 -3.46875 "/></g></g></g><g fill="#f59e0b" fill-opacity="1"><g transform="translate(70.31555, 28.340607)"><g><path d="M 2.765625 -3.359375 C 1.316406 -3.691406 0.59375 -4.3125 0.59375 -5.21875 C 0.59375 -5.894531 0.820312 -6.398438 1.28125 -6.734375 C 1.75 -7.054688 2.300781 -7.21875 2.9375 -7.21875 C 4.320312 -7.21875 5.144531 -6.703125 5.40625 -5.671875 L 4.609375 -5.671875 C 4.460938 -6.285156 3.90625 -6.59375 2.9375 -6.59375 C 2.25 -6.59375 1.769531 -6.390625 1.5 -5.984375 C 1.394531 -5.828125 1.34375 -5.632812 1.34375 -5.40625 C 1.34375 -4.96875 1.578125 -4.628906 2.046875 -4.390625 C 2.273438 -4.273438 2.75 -4.125 3.46875 -3.9375 C 4.195312 -3.75 4.726562 -3.539062 5.0625 -3.3125 C 5.507812 -2.988281 5.734375 -2.535156 5.734375 -1.953125 C 5.734375 -1.234375 5.453125 -0.691406 4.890625 -0.328125 C 4.410156 -0.015625 3.820312 0.140625 3.125 0.140625 C 1.550781 0.140625 0.640625 -0.460938 0.390625 -1.671875 L 1.25 -1.671875 C 1.382812 -0.910156 2.007812 -0.53125 3.125 -0.53125 C 3.925781 -0.53125 4.484375 -0.75 4.796875 -1.1875 C 4.921875 -1.363281 4.984375 -1.601562 4.984375 -1.90625 C 4.984375 -2.195312 4.867188 -2.4375 4.640625 -2.625 C 4.304688 -2.894531 3.679688 -3.140625 2.765625 -3.359375 Z M 2.765625 -3.359375 "/></g></g></g><g fill="#f59e0b" fill-opacity="1"><g transform="translate(77.861033, 28.340607)"><g><path d="M 4.546875 -2.328125 C 4.546875 -2.785156 4.382812 -3.175781 4.0625 -3.5 C 3.726562 -3.832031 3.332031 -4 2.875 -4 C 2.414062 -4 2.023438 -3.832031 1.703125 -3.5 C 1.367188 -3.175781 1.203125 -2.785156 1.203125 -2.328125 C 1.203125 -1.867188 1.367188 -1.476562 1.703125 -1.15625 C 2.023438 -0.820312 2.414062 -0.65625 2.875 -0.65625 C 3.332031 -0.65625 3.726562 -0.820312 4.0625 -1.15625 C 4.382812 -1.476562 4.546875 -1.867188 4.546875 -2.328125 Z M 5.28125 -2.328125 C 5.28125 -1.648438 5.046875 -1.082031 4.578125 -0.625 C 4.097656 -0.15625 3.53125 0.078125 2.875 0.078125 C 2.21875 0.078125 1.65625 -0.15625 1.1875 -0.625 C 0.707031 -1.082031 0.46875 -1.648438 0.46875 -2.328125 C 0.46875 -2.984375 0.707031 -3.550781 1.1875 -4.03125 C 1.65625 -4.5 2.21875 -4.734375 2.875 -4.734375 C 3.539062 -4.734375 4.109375 -4.5 4.578125 -4.03125 C 5.046875 -3.550781 5.28125 -2.984375 5.28125 -2.328125 Z M 5.28125 -2.328125 "/></g></g></g><g fill="#f59e0b" fill-opacity="1"><g transform="translate(85.15535, 28.340607)"><g><path d="M 3.25 -7.171875 L 2.625 -7.171875 C 2.382812 -7.171875 2.222656 -7.113281 2.140625 -7 C 2.066406 -6.894531 2.03125 -6.757812 2.03125 -6.59375 L 2.03125 -4.609375 L 3.25 -4.609375 L 3.25 -3.921875 L 2.03125 -3.921875 L 2.03125 0 L 1.296875 0 L 1.296875 -3.921875 L 0.359375 -3.921875 L 0.359375 -4.609375 L 1.296875 -4.609375 L 1.296875 -6.390625 C 1.296875 -6.859375 1.410156 -7.21875 1.640625 -7.46875 C 1.847656 -7.71875 2.210938 -7.84375 2.734375 -7.84375 L 3.25 -7.84375 Z M 3.25 -7.171875 "/></g></g></g><g fill="#f59e0b" fill-opacity="1"><g transform="translate(90.262433, 28.340607)"><g><path d="M 0.203125 -3.921875 L 0.203125 -4.609375 L 1.359375 -4.609375 L 1.359375 -6.390625 L 2.09375 -6.390625 L 2.09375 -4.609375 L 3.234375 -4.609375 L 3.234375 -3.921875 L 2.09375 -3.921875 L 2.09375 0 L 1.359375 0 L 1.359375 -3.921875 Z M 0.203125 -3.921875 "/></g></g></g><g fill="#f59e0b" fill-opacity="1"><g transform="translate(95.243933, 28.340607)"><g><path d="M 5.28125 0.59375 L 3.796875 -3.125 L 2.3125 0.59375 L 0.109375 -4.609375 L 0.921875 -4.609375 L 2.296875 -1.0625 L 3.796875 -4.84375 L 5.28125 -1.0625 L 6.65625 -4.609375 L 7.46875 -4.609375 Z M 5.28125 0.59375 "/></g></g></g><g fill="#f59e0b" fill-opacity="1"><g transform="translate(104.359204, 28.340607)"><g><path d="M 4.453125 -2.296875 C 4.453125 -2.742188 4.296875 -3.132812 3.984375 -3.46875 C 3.671875 -3.8125 3.285156 -3.984375 2.828125 -3.984375 C 2.367188 -3.984375 1.984375 -3.8125 1.671875 -3.46875 C 1.359375 -3.132812 1.203125 -2.742188 1.203125 -2.296875 C 1.203125 -1.859375 1.359375 -1.46875 1.671875 -1.125 C 1.984375 -0.789062 2.367188 -0.625 2.828125 -0.625 C 3.285156 -0.625 3.671875 -0.789062 3.984375 -1.125 C 4.296875 -1.46875 4.453125 -1.859375 4.453125 -2.296875 Z M 5.1875 0 L 4.453125 0 L 4.453125 -0.78125 C 4.410156 -0.726562 4.367188 -0.675781 4.328125 -0.625 C 3.878906 -0.132812 3.34375 0.109375 2.71875 0.109375 C 2.082031 0.109375 1.546875 -0.132812 1.109375 -0.625 C 0.679688 -1.101562 0.46875 -1.660156 0.46875 -2.296875 C 0.46875 -2.941406 0.679688 -3.503906 1.109375 -3.984375 C 1.546875 -4.460938 2.082031 -4.703125 2.71875 -4.703125 C 3.34375 -4.703125 3.878906 -4.460938 4.328125 -3.984375 C 4.367188 -3.929688 4.410156 -3.878906 4.453125 -3.828125 L 4.453125 -4.609375 L 5.1875 -4.609375 Z M 5.1875 0 "/></g></g></g><g fill="#f59e0b" fill-opacity="1"><g transform="translate(111.862831, 28.340607)"><g><path d="M 3.15625 -3.65625 C 2.988281 -3.8125 2.804688 -3.890625 2.609375 -3.890625 C 2.421875 -3.890625 2.257812 -3.835938 2.125 -3.734375 C 1.988281 -3.617188 1.875 -3.484375 1.78125 -3.328125 C 1.601562 -3.023438 1.515625 -2.679688 1.515625 -2.296875 L 1.515625 0 L 0.78125 0 L 0.78125 -4.609375 L 1.515625 -4.609375 L 1.515625 -3.65625 L 1.546875 -3.84375 C 1.796875 -4.414062 2.175781 -4.703125 2.6875 -4.703125 C 2.851562 -4.703125 3.007812 -4.671875 3.15625 -4.609375 Z M 3.15625 -3.65625 "/></g></g></g><g fill="#f59e0b" fill-opacity="1"><g transform="translate(116.655959, 28.340607)"><g><path d="M 5.28125 -2.40625 L 5.28125 -2.015625 L 1.234375 -2.015625 C 1.304688 -1.617188 1.5 -1.296875 1.8125 -1.046875 C 2.132812 -0.785156 2.488281 -0.65625 2.875 -0.65625 C 3.144531 -0.65625 3.398438 -0.71875 3.640625 -0.84375 C 3.878906 -0.96875 4.078125 -1.132812 4.234375 -1.34375 L 5.078125 -1.34375 C 4.878906 -0.90625 4.585938 -0.5625 4.203125 -0.3125 C 3.796875 -0.0507812 3.394531 0.078125 3 0.078125 C 2.582031 0.078125 2.234375 0.015625 1.953125 -0.109375 C 1.648438 -0.234375 1.394531 -0.40625 1.1875 -0.625 C 0.707031 -1.082031 0.46875 -1.648438 0.46875 -2.328125 C 0.46875 -2.984375 0.707031 -3.550781 1.1875 -4.03125 C 1.65625 -4.5 2.21875 -4.734375 2.875 -4.734375 C 3.519531 -4.734375 4.082031 -4.503906 4.5625 -4.046875 C 5.039062 -3.585938 5.28125 -3.039062 5.28125 -2.40625 Z M 4.515625 -2.65625 C 4.429688 -3.039062 4.234375 -3.363281 3.921875 -3.625 C 3.617188 -3.875 3.269531 -4 2.875 -4 C 2.28125 -4 1.8125 -3.726562 1.46875 -3.1875 C 1.363281 -3.019531 1.289062 -2.84375 1.25 -2.65625 Z M 4.515625 -2.65625 "/></g></g></g><g fill="#f59e0b" fill-opacity="1"><g transform="translate(123.897949, 28.340607)"><g/></g></g><g fill="#f59e0b" fill-opacity="1"><g transform="translate(128.262003, 28.340607)"><g><path d="M 5.015625 0 L 0.78125 0 L 0.78125 -7.125 L 5.015625 -7.125 L 5.015625 -6.4375 L 1.515625 -6.4375 L 1.515625 -3.90625 L 4.90625 -3.90625 L 4.90625 -3.21875 L 1.515625 -3.21875 L 1.515625 -0.6875 L 5.015625 -0.6875 Z M 5.015625 0 "/></g></g></g><g fill="#f59e0b" fill-opacity="1"><g transform="translate(135.598178, 28.340607)"><g><path d="M 3.96875 0 L 3.96875 -2.875 C 3.96875 -3.175781 3.898438 -3.4375 3.765625 -3.65625 C 3.628906 -3.863281 3.40625 -3.96875 3.09375 -3.96875 C 2.769531 -3.96875 2.515625 -3.910156 2.328125 -3.796875 C 2.128906 -3.671875 1.972656 -3.515625 1.859375 -3.328125 C 1.628906 -2.984375 1.515625 -2.515625 1.515625 -1.921875 L 1.515625 0 L 0.78125 0 L 0.78125 -4.609375 L 1.515625 -4.609375 L 1.515625 -3.8125 C 1.671875 -4.070312 1.867188 -4.285156 2.109375 -4.453125 C 2.359375 -4.617188 2.644531 -4.703125 2.96875 -4.703125 C 3.300781 -4.703125 3.566406 -4.65625 3.765625 -4.5625 C 3.972656 -4.46875 4.144531 -4.335938 4.28125 -4.171875 C 4.5625 -3.847656 4.703125 -3.414062 4.703125 -2.875 L 4.703125 0 Z M 3.96875 0 "/></g></g></g><g fill="#f59e0b" fill-opacity="1"><g transform="translate(142.463418, 28.340607)"><g><path d="M 4.515625 -2.296875 C 4.515625 -2.742188 4.359375 -3.132812 4.046875 -3.46875 C 3.734375 -3.8125 3.347656 -3.984375 2.890625 -3.984375 C 2.441406 -3.984375 2.054688 -3.8125 1.734375 -3.46875 C 1.421875 -3.144531 1.265625 -2.753906 1.265625 -2.296875 C 1.265625 -1.847656 1.421875 -1.457031 1.734375 -1.125 C 2.054688 -0.789062 2.441406 -0.625 2.890625 -0.625 C 3.347656 -0.625 3.734375 -0.789062 4.046875 -1.125 C 4.359375 -1.46875 4.515625 -1.859375 4.515625 -2.296875 Z M 1.25 0.625 C 1.3125 0.914062 1.460938 1.171875 1.703125 1.390625 C 2.015625 1.722656 2.398438 1.890625 2.859375 1.890625 C 3.304688 1.890625 3.695312 1.722656 4.03125 1.390625 C 4.351562 1.066406 4.515625 0.679688 4.515625 0.234375 L 4.515625 -0.78125 C 4.472656 -0.726562 4.429688 -0.675781 4.390625 -0.625 C 3.953125 -0.132812 3.414062 0.109375 2.78125 0.109375 C 2.144531 0.109375 1.609375 -0.132812 1.171875 -0.625 C 0.742188 -1.101562 0.53125 -1.660156 0.53125 -2.296875 C 0.53125 -2.941406 0.742188 -3.503906 1.171875 -3.984375 C 1.609375 -4.460938 2.144531 -4.703125 2.78125 -4.703125 C 3.394531 -4.703125 3.929688 -4.460938 4.390625 -3.984375 C 4.429688 -3.929688 4.472656 -3.878906 4.515625 -3.828125 L 4.515625 -4.609375 L 5.25 -4.609375 L 5.25 0.234375 C 5.25 0.890625 5.015625 1.453125 4.546875 1.921875 C 4.078125 2.378906 3.515625 2.609375 2.859375 2.609375 C 2.203125 2.609375 1.640625 2.378906 1.171875 1.921875 C 0.804688 1.546875 0.582031 1.113281 0.5 0.625 Z M 1.25 0.625 "/></g></g></g><g fill="#f59e0b" fill-opacity="1"><g transform="translate(150.029832, 28.340607)"><g><path d="M 1.53125 -6.203125 C 1.625 -6.109375 1.671875 -6 1.671875 -5.875 C 1.671875 -5.738281 1.625 -5.625 1.53125 -5.53125 C 1.4375 -5.445312 1.328125 -5.40625 1.203125 -5.40625 C 1.066406 -5.40625 0.957031 -5.445312 0.875 -5.53125 C 0.78125 -5.625 0.734375 -5.738281 0.734375 -5.875 C 0.734375 -6 0.78125 -6.109375 0.875 -6.203125 C 0.957031 -6.285156 1.066406 -6.328125 1.203125 -6.328125 C 1.328125 -6.328125 1.4375 -6.285156 1.53125 -6.203125 Z M 1.5625 0 L 0.84375 0 L 0.84375 -4.609375 L 1.5625 -4.609375 Z M 1.5625 0 "/></g></g></g><g fill="#f59e0b" fill-opacity="1"><g transform="translate(153.964808, 28.340607)"><g><path d="M 3.96875 0 L 3.96875 -2.875 C 3.96875 -3.175781 3.898438 -3.4375 3.765625 -3.65625 C 3.628906 -3.863281 3.40625 -3.96875 3.09375 -3.96875 C 2.769531 -3.96875 2.515625 -3.910156 2.328125 -3.796875 C 2.128906 -3.671875 1.972656 -3.515625 1.859375 -3.328125 C 1.628906 -2.984375 1.515625 -2.515625 1.515625 -1.921875 L 1.515625 0 L 0.78125 0 L 0.78125 -4.609375 L 1.515625 -4.609375 L 1.515625 -3.8125 C 1.671875 -4.070312 1.867188 -4.285156 2.109375 -4.453125 C 2.359375 -4.617188 2.644531 -4.703125 2.96875 -4.703125 C 3.300781 -4.703125 3.566406 -4.65625 3.765625 -4.5625 C 3.972656 -4.46875 4.144531 -4.335938 4.28125 -4.171875 C 4.5625 -3.847656 4.703125 -3.414062 4.703125 -2.875 L 4.703125 0 Z M 3.96875 0 "/></g></g></g><g fill="#f59e0b" fill-opacity="1"><g transform="translate(160.830043, 28.340607)"><g><path d="M 5.28125 -2.40625 L 5.28125 -2.015625 L 1.234375 -2.015625 C 1.304688 -1.617188 1.5 -1.296875 1.8125 -1.046875 C 2.132812 -0.785156 2.488281 -0.65625 2.875 -0.65625 C 3.144531 -0.65625 3.398438 -0.71875 3.640625 -0.84375 C 3.878906 -0.96875 4.078125 -1.132812 4.234375 -1.34375 L 5.078125 -1.34375 C 4.878906 -0.90625 4.585938 -0.5625 4.203125 -0.3125 C 3.796875 -0.0507812 3.394531 0.078125 3 0.078125 C 2.582031 0.078125 2.234375 0.015625 1.953125 -0.109375 C 1.648438 -0.234375 1.394531 -0.40625 1.1875 -0.625 C 0.707031 -1.082031 0.46875 -1.648438 0.46875 -2.328125 C 0.46875 -2.984375 0.707031 -3.550781 1.1875 -4.03125 C 1.65625 -4.5 2.21875 -4.734375 2.875 -4.734375 C 3.519531 -4.734375 4.082031 -4.503906 4.5625 -4.046875 C 5.039062 -3.585938 5.28125 -3.039062 5.28125 -2.40625 Z M 4.515625 -2.65625 C 4.429688 -3.039062 4.234375 -3.363281 3.921875 -3.625 C 3.617188 -3.875 3.269531 -4 2.875 -4 C 2.28125 -4 1.8125 -3.726562 1.46875 -3.1875 C 1.363281 -3.019531 1.289062 -2.84375 1.25 -2.65625 Z M 4.515625 -2.65625 "/></g></g></g><g fill="#f59e0b" fill-opacity="1"><g transform="translate(168.072029, 28.340607)"><g><path d="M 5.28125 -2.40625 L 5.28125 -2.015625 L 1.234375 -2.015625 C 1.304688 -1.617188 1.5 -1.296875 1.8125 -1.046875 C 2.132812 -0.785156 2.488281 -0.65625 2.875 -0.65625 C 3.144531 -0.65625 3.398438 -0.71875 3.640625 -0.84375 C 3.878906 -0.96875 4.078125 -1.132812 4.234375 -1.34375 L 5.078125 -1.34375 C 4.878906 -0.90625 4.585938 -0.5625 4.203125 -0.3125 C 3.796875 -0.0507812 3.394531 0.078125 3 0.078125 C 2.582031 0.078125 2.234375 0.015625 1.953125 -0.109375 C 1.648438 -0.234375 1.394531 -0.40625 1.1875 -0.625 C 0.707031 -1.082031 0.46875 -1.648438 0.46875 -2.328125 C 0.46875 -2.984375 0.707031 -3.550781 1.1875 -4.03125 C 1.65625 -4.5 2.21875 -4.734375 2.875 -4.734375 C 3.519531 -4.734375 4.082031 -4.503906 4.5625 -4.046875 C 5.039062 -3.585938 5.28125 -3.039062 5.28125 -2.40625 Z M 4.515625 -2.65625 C 4.429688 -3.039062 4.234375 -3.363281 3.921875 -3.625 C 3.617188 -3.875 3.269531 -4 2.875 -4 C 2.28125 -4 1.8125 -3.726562 1.46875 -3.1875 C 1.363281 -3.019531 1.289062 -2.84375 1.25 -2.65625 Z M 4.515625 -2.65625 "/></g></g></g><g fill="#f59e0b" fill-opacity="1"><g transform="translate(175.314014, 28.340607)"><g><path d="M 3.15625 -3.65625 C 2.988281 -3.8125 2.804688 -3.890625 2.609375 -3.890625 C 2.421875 -3.890625 2.257812 -3.835938 2.125 -3.734375 C 1.988281 -3.617188 1.875 -3.484375 1.78125 -3.328125 C 1.601562 -3.023438 1.515625 -2.679688 1.515625 -2.296875 L 1.515625 0 L 0.78125 0 L 0.78125 -4.609375 L 1.515625 -4.609375 L 1.515625 -3.65625 L 1.546875 -3.84375 C 1.796875 -4.414062 2.175781 -4.703125 2.6875 -4.703125 C 2.851562 -4.703125 3.007812 -4.671875 3.15625 -4.609375 Z M 3.15625 -3.65625 "/></g></g></g></svg>